<?xml version="1.0" standalone="no"?>
<!DOCTYPE svg PUBLIC "-//W3C//DTD SVG 1.1//EN" "http://www.w3.org/Graphics/SVG/1.1/DTD/svg11.dtd" >
<svg>
<metadata>
Created by FontForge 20120731 at Sun May 27 06:29:32 2018
 By www
Copyright (c) 2012 by Juri Zaech. All rights reserved.
</metadata>
<defs>
<font id="FrontageW00-Bold" horiz-adv-x="590" >
  <font-face 
    font-family="FrontageW00-Bold"
    font-weight="400"
    font-stretch="normal"
    units-per-em="1000"
    panose-1="2 0 5 5 0 0 0 2 0 4"
    ascent="800"
    descent="-200"
    x-height="725"
    cap-height="725"
    bbox="-25 -200 1376 975"
    underline-thickness="50"
    underline-position="-125"
    unicode-range="U+0020-2212"
  />
<missing-glyph horiz-adv-x="699" 
 />
    <glyph glyph-name=".notdef" horiz-adv-x="699" 
 />
    <glyph glyph-name=".null" horiz-adv-x="0" 
 />
    <glyph glyph-name="nonmarkingreturn" horiz-adv-x="333" 
 />
    <glyph glyph-name="space" unicode=" " horiz-adv-x="550" 
 />
    <glyph glyph-name="exclam" unicode="!" 
d="M420 175h-150v550h150v-550zM420 -25h-150v150h150v-150z" />
    <glyph glyph-name="quotedbl" unicode="&#x22;" horiz-adv-x="675" 
d="M350 475h-150v250h150v-250zM575 475h-150v250h150v-250z" />
    <glyph glyph-name="numbersign" unicode="#" horiz-adv-x="1000" 
d="M750 400l-25 -100h95l-37 -150h-94l-42 -175h-154l42 175h-67l-42 -175h-154l42 175h-94l36 150h94l24 100h-94l36 150h95l42 175h154l-42 -175h66l43 175h154l-42 -175h94l-36 -150h-94zM595 400h-66l-24 -100h66z" />
    <glyph glyph-name="dollar" unicode="$" horiz-adv-x="780" 
d="M670 200q0 -37 -11 -70t-31 -61t-47.5 -48.5t-60.5 -32.5v-88h-150v88q-54 19 -92.5 61.5t-51.5 99.5l144 51q0 -31 21.5 -53t53.5 -22q31 0 53 22t22 53t-22 53t-53 22q-47 0 -87.5 17.5t-71.5 48.5t-48.5 71.5t-17.5 87.5q0 37 11 70t31 61t47.5 48.5t60.5 32.5v88h150
v-88q54 -19 92.5 -61.5t51.5 -99.5l-144 -51q0 31 -22 53t-53 22q-32 0 -53.5 -22t-21.5 -53t21.5 -53t53.5 -22q46 0 87 -17.5t72 -48.5t48.5 -72t17.5 -87z" />
    <glyph glyph-name="percent" unicode="%" horiz-adv-x="1031" 
d="M420 575q0 21 -14.5 35.5t-35.5 14.5t-35.5 -14.5t-14.5 -35.5t14.5 -35.5t35.5 -14.5t35.5 14.5t14.5 35.5zM370 725q31 0 58.5 -12t47.5 -32t32 -47.5t12 -58.5t-12 -58.5t-32 -47.5t-47.5 -32t-58.5 -12t-58.5 12t-47.5 32t-32 47.5t-12 58.5t12 58.5t32 47.5t47.5 32
t58.5 12zM333 -49l-99 76l548 723l99 -76zM811 125q0 21 -15 35.5t-35 14.5q-21 0 -35.5 -14.5t-14.5 -35.5t14.5 -35.5t35.5 -14.5q20 0 35 14.5t15 35.5zM761 275q31 0 58.5 -12t47.5 -32t32 -47.5t12 -58.5t-12 -58.5t-32 -47.5t-47.5 -32t-58.5 -12t-58.5 12t-47.5 32
t-32 47.5t-12 58.5t12 58.5t32 47.5t47.5 32t58.5 12z" />
    <glyph glyph-name="ampersand" unicode="&#x26;" horiz-adv-x="960" 
d="M469 532q8 8 8 18t-8 18q-8 7 -18 7t-17 -7q-8 -8 -8 -18t8 -18l17 -17zM402 147q22 -22 53 -22t53 22l49 49l-106 106l-49 -49q-22 -22 -22 -53t22 -53zM575 674q25 -26 38 -58t13 -66t-13 -66t-38 -58l-18 -17l106 -107l91 91l106 -106l-90 -91l90 -90l-106 -106
l-91 90l-49 -49q-33 -33 -74.5 -49.5t-84.5 -16.5t-84.5 16.5t-74.5 49.5t-49.5 74.5t-16.5 84.5t16.5 84.5t49.5 74.5l49 50l-17 17q-26 26 -39 58t-13 66t13 66t39 58q25 25 57.5 38t66 13t65.5 -13t58 -38z" />
    <glyph glyph-name="quotesingle" unicode="'" horiz-adv-x="450" 
d="M350 475h-150v250h150v-250z" />
    <glyph glyph-name="parenleft" unicode="(" horiz-adv-x="548" 
d="M350 350q0 -93 25.5 -177t72.5 -157l-130 -75q-57 90 -87.5 193t-30.5 216t30.5 216t87.5 193l130 -75q-47 -73 -72.5 -157t-25.5 -177z" />
    <glyph glyph-name="parenright" unicode=")" horiz-adv-x="547" 
d="M297 350q0 93 -25 177t-72 157l130 75q56 -90 86.5 -193t30.5 -216t-30.5 -216t-86.5 -193l-130 75q47 73 72 157t25 177z" />
    <glyph glyph-name="asterisk" unicode="*" horiz-adv-x="1004" 
d="M702 350l212 -123l-75 -130l-212 123v-245h-150v245l-212 -123l-75 130l212 123l-212 122l75 130l212 -122v245h150v-245l212 122l75 -130z" />
    <glyph glyph-name="plus" unicode="+" horiz-adv-x="850" 
d="M750 275h-200v-200h-150v200h-200v150h200v200h150v-200h200v-150z" />
    <glyph glyph-name="comma" unicode="," horiz-adv-x="450" 
d="M200 125h150v-131l-60 -119h-90v250z" />
    <glyph glyph-name="hyphen" unicode="-" 
d="M520 275h-350v150h350v-150z" />
    <glyph glyph-name="period" unicode="." horiz-adv-x="450" 
d="M350 -25h-150v150h150v-150z" />
    <glyph glyph-name="slash" unicode="/" horiz-adv-x="710" 
d="M549 757l131 -74l-420 -740l-130 74z" />
    <glyph glyph-name="zero" unicode="0" horiz-adv-x="990" 
d="M920 350q0 -78 -29.5 -146t-80.5 -119t-119 -80.5t-146 -29.5t-146 29.5t-119 80.5t-80.5 119t-29.5 146t29.5 146t80.5 119t119 80.5t146 29.5t146 -29.5t119 -80.5t80.5 -119t29.5 -146zM545 575q-47 0 -87.5 -17.5t-71.5 -48.5t-48.5 -72t-17.5 -87q0 -47 17.5 -87.5
t48.5 -71.5t71.5 -48.5t87.5 -17.5q46 0 87 17.5t72 48.5t48.5 71.5t17.5 87.5q0 46 -17.5 87t-48.5 72t-72 48.5t-87 17.5z" />
    <glyph glyph-name="one" unicode="1" 
d="M420 -25h-150v750h150v-750z" />
    <glyph glyph-name="two" unicode="2" horiz-adv-x="839" 
d="M709 475q0 -46 -15.5 -87.5t-42.5 -74.5l-159 -188h217v-150h-539l366 435q23 26 23 65q0 21 -8 39t-21.5 31.5t-31.5 21.5t-39 8q-42 0 -71 -29t-29 -71q0 -25 11 -45l11 -23l-134 -67l-11 23q-13 25 -20 53.5t-7 58.5q0 52 19.5 97.5t53.5 79.5t79.5 53.5t97.5 19.5
t97.5 -19.5t79.5 -53.5t53.5 -79.5t19.5 -97.5z" />
    <glyph glyph-name="three" unicode="3" horiz-adv-x="830" 
d="M540 453q33 -15 60 -38t46.5 -52.5t30.5 -64.5t11 -73q0 -52 -19.5 -97.5t-53.5 -79.5t-79.5 -53.5t-97.5 -19.5q-38 0 -72.5 10.5t-64 30t-53 46.5t-38.5 59l132 76q9 -31 35 -51.5t61 -20.5q42 0 71 29t29 71t-29 71t-71 29h-163l166 250h-189v150h468l-180 -272v0z
" />
    <glyph glyph-name="four" unicode="4" horiz-adv-x="895" 
d="M357 738l146 -34l-94 -404h116v300h150v-300h100v-150h-100v-175h-150v175h-305z" />
    <glyph glyph-name="five" unicode="5" horiz-adv-x="838" 
d="M404 469q27 6 54 6q52 0 97.5 -19.5t79.5 -53.5t53.5 -79.5t19.5 -97.5t-19.5 -97.5t-53.5 -79.5t-79.5 -53.5t-97.5 -19.5q-38 0 -73 10.5t-64.5 30t-52.5 46.5t-38 60l131 76q9 -32 35.5 -52.5t61.5 -20.5q42 0 71 29t29 71t-29 71t-71 29q-30 0 -54 -15.5t-36 -41.5
l-132 53l48 404h374v-150h-241l-13 -106v0z" />
    <glyph glyph-name="six" unicode="6" horiz-adv-x="820" 
d="M360 227q0 -42 29 -71t71 -29t71 29t29 71t-29 71t-71 29t-71 -29t-29 -71zM472 477q49 -3 92.5 -23.5t76 -54t51 -78t18.5 -94.5q0 -52 -19.5 -97.5t-53.5 -79.5t-79.5 -53.5t-97.5 -19.5t-97.5 19.5t-79.5 53.5t-53.5 79.5t-19.5 97.5q0 61 28 115l208 420l134 -66z
" />
    <glyph glyph-name="seven" unicode="7" horiz-adv-x="848" 
d="M220 725h538l-174 -400h48v-150h-114l-94 -216l-137 60l68 156h-48v150h113l109 250h-309v150z" />
    <glyph glyph-name="eight" unicode="8" horiz-adv-x="800" 
d="M615 412q39 -34 62 -82t23 -105q0 -52 -19.5 -97.5t-53.5 -79.5t-79.5 -53.5t-97.5 -19.5t-97.5 19.5t-79.5 53.5t-53.5 79.5t-19.5 97.5q0 57 23 105t62 82q-17 24 -26 52.5t-9 60.5q0 41 15.5 77.5t42.5 63.5t63.5 43t78.5 16q41 0 77.5 -16t63.5 -43t43 -63.5
t16 -77.5q0 -32 -9 -60.5t-26 -52.5zM450 475q21 0 35.5 14.5t14.5 35.5t-14.5 35.5t-35.5 14.5t-35.5 -14.5t-14.5 -35.5t14.5 -35.5t35.5 -14.5zM450 325q-42 0 -71 -29t-29 -71t29 -71t71 -29t71 29t29 71t-29 71t-71 29z" />
    <glyph glyph-name="nine" unicode="9" horiz-adv-x="780" 
d="M540 475q0 42 -29 71t-71 29t-71 -29t-29 -71t29 -71t71 -29t71 29t29 71zM428 225q-50 2 -93.5 22.5t-75.5 54.5t-50.5 78.5t-18.5 94.5q0 52 19.5 97.5t53.5 79.5t79.5 53.5t97.5 19.5t97.5 -19.5t79.5 -53.5t53.5 -79.5t19.5 -97.5q0 -61 -28 -115l-208 -420l-134 66z
" />
    <glyph glyph-name="colon" unicode=":" horiz-adv-x="450" 
d="M350 -25h-150v150h150v-150zM350 375h-150v150h150v-150z" />
    <glyph glyph-name="semicolon" unicode=";" horiz-adv-x="450" 
d="M200 125h150v-131l-60 -119h-90v250zM350 375h-150v150h150v-150z" />
    <glyph glyph-name="less" unicode="&#x3c;" horiz-adv-x="822" 
d="M615 610l67 -135l-255 -125l255 -125l-67 -135l-395 194v132z" />
    <glyph glyph-name="equal" unicode="=" horiz-adv-x="850" 
d="M750 375h-550v150h550v-150zM750 175h-550v150h550v-150z" />
    <glyph glyph-name="greater" unicode="&#x3e;" horiz-adv-x="822" 
d="M702 416v-132l-395 -194l-66 135l254 125l-254 125l66 135z" />
    <glyph glyph-name="question" unicode="?" horiz-adv-x="703" 
d="M320 125h150v-150h-150v150zM395 725q49 0 92.5 -18.5t76 -51t51 -76t18.5 -92.5q0 -39 -12 -75t-34 -65.5t-51.5 -51t-65.5 -33.5v-87h-150v225h75q37 0 62.5 25.5t25.5 61.5q0 37 -25.5 62.5t-62.5 25.5q-33 0 -57.5 -22t-28.5 -54l-139 62q12 36 33.5 66t51 51.5
t65.5 34t75 12.5z" />
    <glyph glyph-name="at" unicode="@" horiz-adv-x="1030" 
d="M940 350q0 -47 -17.5 -87.5t-48.5 -71.5t-72 -48.5t-87 -17.5h-12t-11 1l48 -108q-39 -20 -83 -31.5t-92 -11.5q-78 0 -146 29.5t-119 80.5t-80.5 119t-29.5 146t29.5 146t80.5 119t119 80.5t146 29.5t146 -29.5t119 -80.5t80.5 -119t29.5 -146zM540 350q0 -11 7 -18
t18 -7t18 7t7 18t-7 18t-18 7t-18 -7t-7 -18zM565 125q38 0 75 13q-36 12 -67 37h-8q-36 0 -68 13.5t-56 37.5t-37.5 56t-13.5 68t13.5 68t37.5 56t56 37.5t68 13.5t68 -13.5t56 -37.5t37.5 -56t13.5 -68q0 -39 -17 -75q29 4 48 25t19 50q0 46 -17.5 87t-48.5 72t-72 48.5
t-87 17.5q-47 0 -87.5 -17.5t-71.5 -48.5t-48.5 -72t-17.5 -87q0 -47 17.5 -87.5t48.5 -71.5t71.5 -48.5t87.5 -17.5z" />
    <glyph glyph-name="A" unicode="A" horiz-adv-x="1085" 
d="M785 100h-386l-68 -125h-171l432 791l433 -791h-171zM703 250l-111 204l-111 -204h222z" />
    <glyph glyph-name="B" unicode="B" horiz-adv-x="1030" 
d="M834 377q39 -31 62.5 -77t23.5 -100q0 -47 -17.5 -87.5t-48.5 -71.5t-72 -48.5t-87 -17.5h-425v750h375q46 0 87 -17.5t72 -48.5t48.5 -72t17.5 -87q0 -67 -36 -123zM645 425q31 0 53 22t22 53t-22 53t-53 22h-225v-150h225zM695 125q31 0 53 22t22 53t-22 53t-53 22
h-276v-150h276z" />
    <glyph glyph-name="C" unicode="C" horiz-adv-x="939" 
d="M180 350q0 78 29.5 146t80.5 119t119 80.5t146 29.5q92 0 170 -40.5t129 -108.5l15 -20l-119 -91l-15 20q-31 42 -77.5 66t-102.5 24q-47 0 -87.5 -17.5t-71.5 -48.5t-48.5 -72t-17.5 -87q0 -47 17.5 -87.5t48.5 -71.5t71.5 -48.5t87.5 -17.5q56 0 102.5 24t77.5 66
l15 20l119 -91l-15 -20q-51 -69 -129 -109t-170 -40q-78 0 -146 29.5t-119 80.5t-80.5 119t-29.5 146z" />
    <glyph glyph-name="D" unicode="D" horiz-adv-x="1000" 
d="M270 -25v750h275q78 0 146 -29.5t119 -80.5t80.5 -119t29.5 -146t-29.5 -146t-80.5 -119t-119 -80.5t-146 -29.5h-275zM545 125q46 0 87 17.5t72 48.5t48.5 71.5t17.5 87.5q0 46 -17.5 87t-48.5 72t-72 48.5t-87 17.5h-125v-450h125z" />
    <glyph glyph-name="E" unicode="E" horiz-adv-x="980" 
d="M270 725h550v-150h-400v-225h300v-150h-300v-75h400v-150h-550v750z" />
    <glyph glyph-name="F" unicode="F" horiz-adv-x="930" 
d="M270 725h550v-150h-400v-225h300v-150h-300v-225h-150v750z" />
    <glyph glyph-name="G" unicode="G" horiz-adv-x="989" 
d="M865 125q-51 -69 -129 -109.5t-171 -40.5q-78 0 -146 29.5t-119 80.5t-80.5 119t-29.5 146t29.5 146t80.5 119t119 80.5t146 29.5q99 0 180.5 -46t132.5 -123l-119 -92q-29 50 -80 80.5t-114 30.5q-47 0 -87.5 -17.5t-71.5 -48.5t-48.5 -72t-17.5 -87q0 -47 17.5 -87.5
t48.5 -71.5t71.5 -48.5t87.5 -17.5q44 0 82 15.5t68 41.5v43h-175v150h325v-250z" />
    <glyph glyph-name="H" unicode="H" horiz-adv-x="1090" 
d="M920 725v-750h-150v225h-350v-225h-150v750h150v-375h350v375h150z" />
    <glyph glyph-name="I" unicode="I" 
d="M420 -25h-150v750h150v-750z" />
    <glyph glyph-name="J" unicode="J" horiz-adv-x="848" 
d="M180 102l119 92l15 -20q17 -23 43 -36t56 -13q26 0 48.5 10t39.5 27t27 39.5t10 48.5v475h150v-475q0 -57 -21.5 -107t-59 -87.5t-87.5 -59t-107 -21.5q-67 0 -123.5 29t-94.5 78z" />
    <glyph glyph-name="K" unicode="K" horiz-adv-x="995" 
d="M270 725h150v-284l261 284h204l-276 -301l281 -449h-177l-209 335l-84 -91v-244h-150v750z" />
    <glyph glyph-name="L" unicode="L" horiz-adv-x="920" 
d="M270 725h150v-600h400v-150h-550v750z" />
    <glyph glyph-name="M" unicode="M" horiz-adv-x="1134" 
d="M309 725h38l271 -293l270 293h39l57 -750h-150l-33 434l-183 -198l-183 198l-34 -434h-150z" />
    <glyph glyph-name="N" unicode="N" horiz-adv-x="1090" 
d="M270 725h40l460 -438v438h150v-750h-41l-459 438v-438h-150v750z" />
    <glyph glyph-name="O" unicode="O" horiz-adv-x="990" 
d="M920 350q0 -78 -29.5 -146t-80.5 -119t-119 -80.5t-146 -29.5t-146 29.5t-119 80.5t-80.5 119t-29.5 146t29.5 146t80.5 119t119 80.5t146 29.5t146 -29.5t119 -80.5t80.5 -119t29.5 -146zM545 575q-47 0 -87.5 -17.5t-71.5 -48.5t-48.5 -72t-17.5 -87q0 -47 17.5 -87.5
t48.5 -71.5t71.5 -48.5t87.5 -17.5q46 0 87 17.5t72 48.5t48.5 71.5t17.5 87.5q0 46 -17.5 87t-48.5 72t-72 48.5t-87 17.5z" />
    <glyph glyph-name="P" unicode="P" horiz-adv-x="900" 
d="M545 325q26 0 48.5 10t39.5 27t27 39.5t10 48.5t-10 48.5t-27 39.5t-39.5 27t-48.5 10h-125v-250h125zM420 175v-200h-150v750h275q57 0 107 -21.5t87.5 -59t59 -87.5t21.5 -107t-21.5 -107t-59 -87.5t-87.5 -59t-107 -21.5h-125z" />
    <glyph glyph-name="Q" unicode="Q" horiz-adv-x="1040" 
d="M930 350q0 -76 -28 -142t-76 -117l76 -116h-179l-20 30q-35 -14 -72 -22t-76 -8q-78 0 -146 29.5t-119 80.5t-80.5 119t-29.5 146t29.5 146t80.5 119t119 80.5t146 29.5t146 -29.5t119 -80.5t80.5 -119t29.5 -146zM555 125q33 0 63 9l-69 105h180l11 -17q19 27 29.5 59.5
t10.5 68.5q0 46 -17.5 87t-48.5 72t-72 48.5t-87 17.5q-47 0 -87.5 -17.5t-71.5 -48.5t-48.5 -72t-17.5 -87q0 -47 17.5 -87.5t48.5 -71.5t71.5 -48.5t87.5 -17.5z" />
    <glyph glyph-name="R" unicode="R" horiz-adv-x="963" 
d="M545 325q26 0 48.5 10t39.5 27t27 39.5t10 48.5t-10 48.5t-27 39.5t-39.5 27t-48.5 10h-125v-250h125zM848 -25h-179l-131 200h-118v-200h-150v750h275q57 0 107 -21.5t87.5 -59t59 -87.5t21.5 -107q0 -75 -35.5 -136t-94.5 -98z" />
    <glyph glyph-name="S" unicode="S" horiz-adv-x="780" 
d="M445 425q46 0 87 -17.5t72 -48.5t48.5 -72t17.5 -87q0 -47 -17.5 -87.5t-48.5 -71.5t-72 -48.5t-87 -17.5q-40 0 -76 13t-65 36.5t-49 55t-29 69.5l144 51q0 -31 22 -53t53 -22t53 22t22 53t-22 53t-53 22q-47 0 -87.5 17.5t-71.5 48.5t-48.5 71.5t-17.5 87.5
q0 46 17.5 87t48.5 72t71.5 48.5t87.5 17.5q40 0 76 -13t65 -36.5t49 -55.5t29 -69l-144 -51q0 31 -22 53t-53 22t-53 -22t-22 -53t22 -53t53 -22z" />
    <glyph glyph-name="T" unicode="T" horiz-adv-x="950" 
d="M200 725h650v-150h-250v-600h-150v600h-250v150z" />
    <glyph glyph-name="U" unicode="U" horiz-adv-x="1050" 
d="M900 300q0 -68 -25.5 -127t-70 -103t-103.5 -69.5t-126 -25.5q-68 0 -127 25.5t-103 69.5t-69.5 103t-25.5 127v425h150v-425q0 -36 13.5 -68t37.5 -56t56 -37.5t68 -13.5t68 13.5t56 37.5t37.5 56t13.5 68v425h150v-425z" />
    <glyph glyph-name="V" unicode="V" horiz-adv-x="985" 
d="M565 -25h-45l-410 750h171l262 -479l261 479h171z" />
    <glyph glyph-name="W" unicode="W" horiz-adv-x="1133" 
d="M473 -25h-45l-288 750h161l149 -390l150 390h34l149 -390l150 390h160l-287 -750h-45l-144 375z" />
    <glyph glyph-name="X" unicode="X" horiz-adv-x="940" 
d="M202 725h177l141 -224l140 224h177l-229 -365l242 -385h-177l-153 244l-153 -244h-177l241 385z" />
    <glyph glyph-name="Y" unicode="Y" horiz-adv-x="893" 
d="M120 725h177l199 -318l200 318h177l-302 -481v-269h-150v269z" />
    <glyph glyph-name="Z" unicode="Z" horiz-adv-x="864" 
d="M222 725h552l-330 -600h313v-150h-567l330 600h-298v150z" />
    <glyph glyph-name="bracketleft" unicode="[" horiz-adv-x="595" 
d="M400 675v-650h75v-150h-225v950h225v-150h-75z" />
    <glyph glyph-name="backslash" unicode="\" horiz-adv-x="710" 
d="M680 17l-131 -74l-419 740l130 74z" />
    <glyph glyph-name="bracketright" unicode="]" horiz-adv-x="595" 
d="M220 675v150h225v-950h-225v150h75v650h-75z" />
    <glyph glyph-name="asciicircum" unicode="^" horiz-adv-x="616" 
d="M486 270l-128 40l-129 -40l-29 96l158 48l158 -48z" />
    <glyph glyph-name="underscore" unicode="_" horiz-adv-x="700" 
d="M725 -200h-750v150h750v-150z" />
    <glyph glyph-name="grave" unicode="`" horiz-adv-x="616" 
d="M486 758l-286 88l29 96l287 -88z" />
    <glyph glyph-name="a" unicode="a" horiz-adv-x="1085" 
d="M785 100h-386l-68 -125h-171l432 791l433 -791h-171zM703 250l-111 204l-111 -204h222z" />
    <glyph glyph-name="b" unicode="b" horiz-adv-x="1030" 
d="M834 377q39 -31 62.5 -77t23.5 -100q0 -47 -17.5 -87.5t-48.5 -71.5t-72 -48.5t-87 -17.5h-425v750h375q46 0 87 -17.5t72 -48.5t48.5 -72t17.5 -87q0 -67 -36 -123zM645 425q31 0 53 22t22 53t-22 53t-53 22h-225v-150h225zM695 125q31 0 53 22t22 53t-22 53t-53 22
h-276v-150h276z" />
    <glyph glyph-name="c" unicode="c" horiz-adv-x="939" 
d="M180 350q0 78 29.5 146t80.5 119t119 80.5t146 29.5q92 0 170 -40.5t129 -108.5l15 -20l-119 -91l-15 20q-31 42 -77.5 66t-102.5 24q-47 0 -87.5 -17.5t-71.5 -48.5t-48.5 -72t-17.5 -87q0 -47 17.5 -87.5t48.5 -71.5t71.5 -48.5t87.5 -17.5q56 0 102.5 24t77.5 66
l15 20l119 -91l-15 -20q-51 -69 -129 -109t-170 -40q-78 0 -146 29.5t-119 80.5t-80.5 119t-29.5 146z" />
    <glyph glyph-name="d" unicode="d" horiz-adv-x="1000" 
d="M270 -25v750h275q78 0 146 -29.5t119 -80.5t80.5 -119t29.5 -146t-29.5 -146t-80.5 -119t-119 -80.5t-146 -29.5h-275zM545 125q46 0 87 17.5t72 48.5t48.5 71.5t17.5 87.5q0 46 -17.5 87t-48.5 72t-72 48.5t-87 17.5h-125v-450h125z" />
    <glyph glyph-name="e" unicode="e" horiz-adv-x="980" 
d="M270 725h550v-150h-400v-225h300v-150h-300v-75h400v-150h-550v750z" />
    <glyph glyph-name="f" unicode="f" horiz-adv-x="930" 
d="M270 725h550v-150h-400v-225h300v-150h-300v-225h-150v750z" />
    <glyph glyph-name="g" unicode="g" horiz-adv-x="989" 
d="M865 125q-51 -69 -129 -109.5t-171 -40.5q-78 0 -146 29.5t-119 80.5t-80.5 119t-29.5 146t29.5 146t80.5 119t119 80.5t146 29.5q99 0 180.5 -46t132.5 -123l-119 -92q-29 50 -80 80.5t-114 30.5q-47 0 -87.5 -17.5t-71.5 -48.5t-48.5 -72t-17.5 -87q0 -47 17.5 -87.5
t48.5 -71.5t71.5 -48.5t87.5 -17.5q44 0 82 15.5t68 41.5v43h-175v150h325v-250z" />
    <glyph glyph-name="h" unicode="h" horiz-adv-x="1090" 
d="M920 725v-750h-150v225h-350v-225h-150v750h150v-375h350v375h150z" />
    <glyph glyph-name="i" unicode="i" 
d="M420 -25h-150v750h150v-750z" />
    <glyph glyph-name="j" unicode="j" horiz-adv-x="848" 
d="M180 102l119 92l15 -20q17 -23 43 -36t56 -13q26 0 48.5 10t39.5 27t27 39.5t10 48.5v475h150v-475q0 -57 -21.5 -107t-59 -87.5t-87.5 -59t-107 -21.5q-67 0 -123.5 29t-94.5 78z" />
    <glyph glyph-name="k" unicode="k" horiz-adv-x="995" 
d="M270 725h150v-284l261 284h204l-276 -301l281 -449h-177l-209 335l-84 -91v-244h-150v750z" />
    <glyph glyph-name="l" unicode="l" horiz-adv-x="920" 
d="M270 725h150v-600h400v-150h-550v750z" />
    <glyph glyph-name="m" unicode="m" horiz-adv-x="1134" 
d="M309 725h38l271 -293l270 293h39l57 -750h-150l-33 434l-183 -198l-183 198l-34 -434h-150z" />
    <glyph glyph-name="n" unicode="n" horiz-adv-x="1090" 
d="M270 725h40l460 -438v438h150v-750h-41l-459 438v-438h-150v750z" />
    <glyph glyph-name="o" unicode="o" horiz-adv-x="990" 
d="M920 350q0 -78 -29.5 -146t-80.5 -119t-119 -80.5t-146 -29.5t-146 29.5t-119 80.5t-80.5 119t-29.5 146t29.5 146t80.5 119t119 80.5t146 29.5t146 -29.5t119 -80.5t80.5 -119t29.5 -146zM545 575q-47 0 -87.5 -17.5t-71.5 -48.5t-48.5 -72t-17.5 -87q0 -47 17.5 -87.5
t48.5 -71.5t71.5 -48.5t87.5 -17.5q46 0 87 17.5t72 48.5t48.5 71.5t17.5 87.5q0 46 -17.5 87t-48.5 72t-72 48.5t-87 17.5z" />
    <glyph glyph-name="p" unicode="p" horiz-adv-x="900" 
d="M545 325q26 0 48.5 10t39.5 27t27 39.5t10 48.5t-10 48.5t-27 39.5t-39.5 27t-48.5 10h-125v-250h125zM420 175v-200h-150v750h275q57 0 107 -21.5t87.5 -59t59 -87.5t21.5 -107t-21.5 -107t-59 -87.5t-87.5 -59t-107 -21.5h-125z" />
    <glyph glyph-name="q" unicode="q" horiz-adv-x="1040" 
d="M930 350q0 -76 -28 -142t-76 -117l76 -116h-179l-20 30q-35 -14 -72 -22t-76 -8q-78 0 -146 29.5t-119 80.5t-80.5 119t-29.5 146t29.5 146t80.5 119t119 80.5t146 29.5t146 -29.5t119 -80.5t80.5 -119t29.5 -146zM555 125q33 0 63 9l-69 105h180l11 -17q19 27 29.5 59.5
t10.5 68.5q0 46 -17.5 87t-48.5 72t-72 48.5t-87 17.5q-47 0 -87.5 -17.5t-71.5 -48.5t-48.5 -72t-17.5 -87q0 -47 17.5 -87.5t48.5 -71.5t71.5 -48.5t87.5 -17.5z" />
    <glyph glyph-name="r" unicode="r" horiz-adv-x="963" 
d="M545 325q26 0 48.5 10t39.5 27t27 39.5t10 48.5t-10 48.5t-27 39.5t-39.5 27t-48.5 10h-125v-250h125zM848 -25h-179l-131 200h-118v-200h-150v750h275q57 0 107 -21.5t87.5 -59t59 -87.5t21.5 -107q0 -75 -35.5 -136t-94.5 -98z" />
    <glyph glyph-name="s" unicode="s" horiz-adv-x="780" 
d="M445 425q46 0 87 -17.5t72 -48.5t48.5 -72t17.5 -87q0 -47 -17.5 -87.5t-48.5 -71.5t-72 -48.5t-87 -17.5q-40 0 -76 13t-65 36.5t-49 55t-29 69.5l144 51q0 -31 22 -53t53 -22t53 22t22 53t-22 53t-53 22q-47 0 -87.5 17.5t-71.5 48.5t-48.5 71.5t-17.5 87.5
q0 46 17.5 87t48.5 72t71.5 48.5t87.5 17.5q40 0 76 -13t65 -36.5t49 -55.5t29 -69l-144 -51q0 31 -22 53t-53 22t-53 -22t-22 -53t22 -53t53 -22z" />
    <glyph glyph-name="t" unicode="t" horiz-adv-x="950" 
d="M200 725h650v-150h-250v-600h-150v600h-250v150z" />
    <glyph glyph-name="u" unicode="u" horiz-adv-x="1050" 
d="M900 300q0 -68 -25.5 -127t-70 -103t-103.5 -69.5t-126 -25.5q-68 0 -127 25.5t-103 69.5t-69.5 103t-25.5 127v425h150v-425q0 -36 13.5 -68t37.5 -56t56 -37.5t68 -13.5t68 13.5t56 37.5t37.5 56t13.5 68v425h150v-425z" />
    <glyph glyph-name="v" unicode="v" horiz-adv-x="985" 
d="M565 -25h-45l-410 750h171l262 -479l261 479h171z" />
    <glyph glyph-name="w" unicode="w" horiz-adv-x="1133" 
d="M473 -25h-45l-288 750h161l149 -390l150 390h34l149 -390l150 390h160l-287 -750h-45l-144 375z" />
    <glyph glyph-name="x" unicode="x" horiz-adv-x="940" 
d="M202 725h177l141 -224l140 224h177l-229 -365l242 -385h-177l-153 244l-153 -244h-177l241 385z" />
    <glyph glyph-name="y" unicode="y" horiz-adv-x="893" 
d="M120 725h177l199 -318l200 318h177l-302 -481v-269h-150v269z" />
    <glyph glyph-name="z" unicode="z" horiz-adv-x="864" 
d="M222 725h552l-330 -600h313v-150h-567l330 600h-298v150z" />
    <glyph glyph-name="braceleft" unicode="{" horiz-adv-x="646" 
d="M273 369q26 23 26 57v174q0 38 12 72.5t33 62.5t50 48.5t64 31.5l24 7l44 -143l-24 -7q-23 -8 -38 -27t-15 -45v-174q0 -41 -13 -76q13 -35 13 -76v-174q0 -26 15 -45t38 -27l24 -7l-44 -143l-24 7q-35 10 -64 31t-50 49t-33 62.5t-12 72.5v174q0 17 -7 31.5t-19 25.5
l-23 19z" />
    <glyph glyph-name="bar" unicode="|" 
d="M420 -125h-150v950h150v-950z" />
    <glyph glyph-name="braceright" unicode="}" horiz-adv-x="645" 
d="M495 350l-23 -19q-12 -11 -19 -25.5t-7 -31.5v-174q0 -38 -12 -72.5t-33 -62.5t-50.5 -49t-63.5 -31l-24 -7l-44 143l24 7q23 8 38 27t15 45v174q0 20 3.5 39t9.5 37q-6 18 -9.5 37t-3.5 39v174q0 26 -15 45t-38 27l-24 7l44 143l24 -7q34 -11 63.5 -31.5t50.5 -48.5
t33 -62.5t12 -72.5v-174q0 -17 7 -31.5t19 -25.5z" />
    <glyph glyph-name="asciitilde" unicode="~" horiz-adv-x="677" 
d="M498 293q-32 -10 -66.5 -7t-66.5 20q-14 8 -28.5 9t-28.5 -4q-14 -4 -26 -13l-18 -16l-64 77l19 16q25 21 59 32q32 10 67 7t67 -20q14 -8 28.5 -9t28.5 4q13 3 25 13l19 16l64 -78l-20 -16q-27 -22 -59 -31z" />
    <glyph glyph-name="exclamdown" unicode="&#xa1;" 
d="M270 525h150v-550h-150v550zM270 725h150v-150h-150v150z" />
    <glyph glyph-name="cent" unicode="&#xa2;" horiz-adv-x="787" 
d="M589 194l118 -91q-27 -43 -67 -73.5t-90 -44.5v-85h-150v85q-43 12 -79.5 37.5t-63.5 60t-42 77.5t-15 90t15 90t42 77.5t63.5 60t79.5 37.5v85h150v-85q50 -14 90 -44.5t67 -73.5l-118 -91l-15 20q-17 23 -43 36t-56 13q-26 0 -48.5 -10t-39.5 -27t-27 -39.5t-10 -48.5
t10 -48.5t27 -39.5t39.5 -27t48.5 -10q30 0 56 13t43 36z" />
    <glyph glyph-name="sterling" unicode="&#xa3;" horiz-adv-x="910" 
d="M790 125v-150h-550v150h75q11 0 18 7t7 18v25h-100v150h100v200q0 41 15.5 77.5t42.5 63.5t63.5 43t78.5 16q33 0 62.5 -10t54 -27.5t43 -42t28.5 -53.5l9 -24l-142 -50l-8 24q-5 14 -17.5 23.5t-29.5 9.5q-21 0 -35.5 -14.5t-14.5 -35.5v-200h100v-150h-100v-25
q0 -7 -0.5 -13t-1.5 -12h302z" />
    <glyph glyph-name="currency" unicode="&#xa4;" horiz-adv-x="830" 
d="M624 85l-62 62q-46 -22 -97 -22t-97 22l-62 -62l-106 106l62 62q-23 46 -23 97t23 97l-62 62l106 106l62 -62q46 22 97 22t97 -22l62 62l106 -106l-62 -62q22 -46 22 -97t-22 -97l62 -62zM412 297q22 -22 53 -22t53 22t22 53t-22 53t-53 22t-53 -22q-23 -22 -23 -53
t23 -53z" />
    <glyph glyph-name="yen" unicode="&#xa5;" horiz-adv-x="993" 
d="M735 425h61v-150h-155l-20 -31v-19h175v-150h-175v-100h-150v100h-175v150h175v19l-19 31h-156v150h62l-188 300h177l199 -318l200 318h177z" />
    <glyph glyph-name="brokenbar" unicode="&#xa6;" 
d="M420 425h-150v400h150v-400zM420 -125h-150v400h150v-400z" />
    <glyph glyph-name="section" unicode="&#xa7;" horiz-adv-x="840" 
d="M720 350q0 -42 -13 -79.5t-36 -69.5q11 -23 17.5 -48.5t6.5 -52.5q0 -47 -17.5 -87.5t-48.5 -71.5t-72 -48.5t-87 -17.5q-40 0 -76 13t-65 36.5t-49 55t-29 69.5l144 51q0 -31 22 -53t53 -22t53 22t22 53q0 7 -1 11q-36 -11 -74 -11q-52 0 -97.5 19.5t-79.5 53.5
t-53.5 79.5t-19.5 97.5q0 42 13 79.5t36 69.5q-11 23 -17.5 48.5t-6.5 52.5q0 46 17.5 87t48.5 72t71.5 48.5t87.5 17.5q40 0 76 -13t65 -36.5t49 -55.5t29 -69l-144 -51q0 31 -22 53t-53 22t-53 -22t-22 -53q0 -8 1 -11q36 11 74 11q52 0 97.5 -19.5t79.5 -53.5t53.5 -79.5
t19.5 -97.5zM370 350q0 -42 29 -71t71 -29t71 29t29 71t-29 71t-71 29t-71 -29t-29 -71z" />
    <glyph glyph-name="dieresis" unicode="&#xa8;" horiz-adv-x="750" 
d="M327 903q23 -22 23 -53t-23 -53q-22 -22 -53 -22t-53 22t-22 53t22 53t53 22t53 -22zM627 903q23 -22 23 -53t-23 -53q-22 -22 -53 -22t-53 22t-22 53t22 53t53 22t53 -22z" />
    <glyph glyph-name="copyright" unicode="&#xa9;" 
d="M468 674q26 -26 39 -58t13 -66t-13 -66t-39 -58t-58 -38.5t-65.5 -12.5t-66 12.5t-57.5 38.5q-26 26 -39 58t-13 66t13 66t39 58q25 25 57.5 38t66 13t65.5 -13t58 -38zM495 550q0 31 -12 58.5t-32.5 47.5t-47.5 32t-58 12t-58.5 -12t-47.5 -32t-32 -47.5t-12 -58.5
t12 -58.5t32 -47.5t47.5 -32t58.5 -12t58 12t47.5 32t32.5 47.5t12 58.5zM245 549q0 21 8 39.5t21.5 32t32 21.5t39.5 8q25 0 46 -11t35 -29l4 -6l-33 -24l-4 5q-18 24 -48 24q-26 0 -43.5 -17.5t-17.5 -42.5q0 -26 17.5 -43.5t43.5 -17.5q30 0 48 24l4 6l33 -25l-4 -5
q-14 -19 -35 -30t-46 -11q-21 0 -39.5 8t-32 22t-21.5 32.5t-8 39.5z" />
    <glyph glyph-name="ordfeminine" unicode="&#xaa;" horiz-adv-x="612" 
d="M356 766l186 -341h-114l-18 33h-108l-18 -33h-114z" />
    <glyph glyph-name="guillemotleft" unicode="&#xab;" horiz-adv-x="738" 
d="M328 590l123 -86l-107 -154l107 -154l-123 -86l-168 240zM555 590l123 -86l-108 -154l108 -154l-123 -86l-168 240z" />
    <glyph glyph-name="logicalnot" unicode="&#xac;" horiz-adv-x="910" 
d="M760 425v-300h-150v150h-400v150h550z" />
    <glyph glyph-name="registered" unicode="&#xae;" 
d="M469 674q25 -26 38 -58t13 -66t-13 -66t-38 -58q-26 -26 -58 -38.5t-66 -12.5t-66 12.5t-58 38.5t-38.5 58t-12.5 66t12.5 66t38.5 58q26 25 58 38t66 13t66 -13t58 -38zM495 550q0 31 -12 58.5t-32 47.5t-47.5 32t-58.5 12t-58.5 -12t-47.5 -32t-32 -47.5t-12 -58.5
t12 -58.5t32 -47.5t47.5 -32t58.5 -12t58.5 12t47.5 32t32 47.5t12 58.5zM350 542q14 0 24 10t10 24t-10 24t-24 10h-34v-68h34zM431 448h-48l-35 54h-32v-54h-40v202h74q31 0 52.5 -21.5t21.5 -52.5q0 -20 -9.5 -36.5t-25.5 -26.5z" />
    <glyph glyph-name="degree" unicode="&#xb0;" horiz-adv-x="490" 
d="M320 600q0 11 -7 18t-18 7t-18 -7t-7 -18t7 -18t18 -7t18 7t7 18zM295 725q26 0 48.5 -10t39.5 -27t27 -39.5t10 -48.5t-10 -48.5t-27 -39.5t-39.5 -27t-48.5 -10t-48.5 10t-39.5 27t-27 39.5t-10 48.5t10 48.5t27 39.5t39.5 27t48.5 10z" />
    <glyph glyph-name="plusminus" unicode="&#xb1;" horiz-adv-x="850" 
d="M750 400h-200v-200h-150v200h-200v150h200v200h150v-200h200v-150zM750 25h-550v150h550v-150z" />
    <glyph glyph-name="uni00B2" unicode="&#xb2;" horiz-adv-x="470" 
d="M209 538l-15 30q-11 24 -11 49q0 22 8.5 41.5t23 34.5t34 23.5t42.5 8.5q22 0 42 -8.5t35 -23.5t23.5 -34.5t8.5 -41.5l-1 -7q-2 -36 -25 -63l-18 -22h44v-100h-230v34l30 36q13 15 27.5 33t28.5 34zM289 601l9 10q2 2 2 6q0 8 -9 8q-8 0 -8 -8q0 -3 1 -4z" />
    <glyph glyph-name="uni00B3" unicode="&#xb3;" horiz-adv-x="467" 
d="M397 725v-33l-50 -75q18 -15 28.5 -36.5t10.5 -47.5q0 -22 -8.5 -41.5t-23 -34.5t-34.5 -23.5t-42 -8.5q-33 0 -59.5 17.5t-39.5 45.5l-9 21l56 33h-49l55 83h-41v100h206zM285 530q5 7 -3 11q-2 1 -4 1h-13l5 -12q1 -1 1.5 -2t2.5 -2q7 -4 11 4z" />
    <glyph glyph-name="acute" unicode="&#xb4;" horiz-adv-x="616" 
d="M200 854l286 88l30 -96l-287 -88z" />
    <glyph glyph-name="mu" unicode="&#xb5;" horiz-adv-x="1090" 
d="M770 -25v499l-175 -255l-175 255v-499h-150v750h159l166 -241l165 241h160v-750h-150z" />
    <glyph glyph-name="mu" unicode="&#x3bc;" horiz-adv-x="1090" 
d="M770 -25v499l-175 -255l-175 255v-499h-150v750h159l166 -241l165 241h160v-750h-150z" />
    <glyph glyph-name="paragraph" unicode="&#xb6;" horiz-adv-x="860" 
d="M730 575h-50v-600h-300v301q-42 5 -78.5 24t-63.5 49t-42.5 68.5t-15.5 82.5q0 46 17.5 87t48.5 72t71.5 48.5t87.5 17.5h325v-150z" />
    <glyph glyph-name="periodcentered" unicode="&#xb7;" horiz-adv-x="390" 
d="M298 403q22 -22 22 -53t-22 -53t-53 -22t-53 22t-22 53t22 53t53 22t53 -22z" />
    <glyph glyph-name="cedilla" unicode="&#xb8;" horiz-adv-x="425" 
d="M325 25v-150h-125v75h25v75h100z" />
    <glyph glyph-name="uni00B9" unicode="&#xb9;" horiz-adv-x="340" 
d="M270 425h-100v300h100v-300z" />
    <glyph glyph-name="ordmasculine" unicode="&#xba;" horiz-adv-x="600" 
d="M400 575q0 21 -15 35.5t-35 14.5q-21 0 -35.5 -14.5t-14.5 -35.5t14.5 -35.5t35.5 -14.5q20 0 35 14.5t15 35.5zM350 725q31 0 58 -12t47.5 -32t32.5 -47.5t12 -58.5t-12 -58.5t-32.5 -47.5t-47.5 -32t-58 -12t-58.5 12t-47.5 32t-32 47.5t-12 58.5t12 58.5t32 47.5
t47.5 32t58.5 12z" />
    <glyph glyph-name="guillemotright" unicode="&#xbb;" horiz-adv-x="738" 
d="M678 350l-167 -240l-123 86l107 154l-107 154l123 86zM451 350l-167 -240l-123 86l107 154l-107 154l123 86z" />
    <glyph glyph-name="onequarter" unicode="&#xbc;" horiz-adv-x="1007" 
d="M359 425h-100v300h100v-300zM320 -49l-100 76l548 723l99 -76zM704 284l97 -22l-6 -29h58v-100h34v-100h-34v-58h-100v58h-108z" />
    <glyph glyph-name="onehalf" unicode="&#xbd;" horiz-adv-x="1005" 
d="M359 425h-100v300h100v-300zM319 -49l-99 76l547 723l100 -76zM694 88l-14 30q-12 22 -12 49q0 22 8.5 41.5t23.5 34.5t34.5 23.5t41.5 8.5t42 -8.5t35 -23.5t23.5 -34.5t8.5 -41.5v-7q-3 -37 -26 -63l-18 -22h44v-100h-230v34l30 36q13 15 27.5 33t28.5 34zM775 151
l8 10q2 2 2 6q0 8 -9 8q-8 0 -8 -8q0 -2 0.5 -2.5t0.5 -1.5z" />
    <glyph glyph-name="threequarters" unicode="&#xbe;" horiz-adv-x="1022" 
d="M448 725v-33l-50 -75q18 -15 28.5 -36.5t10.5 -47.5q0 -22 -8.5 -41.5t-23 -34.5t-34.5 -23.5t-42 -8.5q-33 0 -59.5 17.5t-39.5 45.5l-9 21l56 33h-49l55 83h-41v100h206zM336 530q4 8 -4 11q-1 1 -3 1h-13l5 -12q1 -1 1.5 -2t2.5 -2q7 -4 11 4zM335 -49l-100 76
l548 723l100 -76zM719 284l98 -22l-7 -29h59v-100h33v-100h-33v-58h-100v58h-108z" />
    <glyph glyph-name="questiondown" unicode="&#xbf;" horiz-adv-x="703" 
d="M482 575h-150v150h150v-150zM407 -25q-49 0 -92 18.5t-75.5 51t-51 75.5t-18.5 92q0 39 12 75t33.5 65.5t51.5 51.5t65 34v87h150v-225h-75q-36 0 -61.5 -25.5t-25.5 -62.5q0 -36 25.5 -61.5t61.5 -25.5q34 0 58 22t29 54l139 -62q-12 -36 -33.5 -66t-51 -51.5t-65.5 -34
t-76 -12.5z" />
    <glyph glyph-name="Agrave" unicode="&#xc0;" horiz-adv-x="1085" 
d="M719 758l-287 88l30 96l287 -88zM786 100h-387l-68 -125h-171l433 791l432 -791h-171zM704 250l-111 204l-112 -204h223z" />
    <glyph glyph-name="Aacute" unicode="&#xc1;" horiz-adv-x="1085" 
d="M433 854l286 88l30 -96l-287 -88zM786 100h-387l-68 -125h-171l433 791l432 -791h-171zM704 250l-111 204l-112 -204h223z" />
    <glyph glyph-name="Acircumflex" unicode="&#xc2;" horiz-adv-x="1085" 
d="M722 758l-129 40l-129 -40l-29 96l158 48l158 -48zM786 100h-386l-68 -125h-171l432 791l432 -791h-170zM704 250l-111 204l-111 -204h222z" />
    <glyph glyph-name="Atilde" unicode="&#xc3;" horiz-adv-x="1085" 
d="M703 782q-32 -10 -66.5 -7t-66.5 20q-28 15 -58 5q-11 -2 -25 -13l-19 -16l-63 78l19 15q25 21 59 32q32 10 66.5 7t66.5 -20q28 -15 58 -5q7 2 13 5t12 8l19 16l63 -78l-19 -15q-25 -21 -59 -32zM786 100h-386l-68 -125h-171l432 791l432 -791h-170zM704 250l-111 204
l-111 -204h222z" />
    <glyph glyph-name="Adieresis" unicode="&#xc4;" horiz-adv-x="1085" 
d="M495 903q23 -22 23 -53t-23 -53q-22 -22 -53 -22t-53 22t-22 53t22 53t53 22t53 -22zM795 903q23 -22 23 -53t-23 -53q-22 -22 -53 -22t-53 22t-22 53t22 53t53 22t53 -22zM785 100h-386l-68 -125h-171l432 791l433 -791h-171zM703 250l-111 204l-111 -204h222z" />
    <glyph glyph-name="Aring" unicode="&#xc5;" horiz-adv-x="1085" 
d="M662 946q15 -15 22 -33.5t7 -37.5t-7 -37.5t-22 -33.5t-33 -22t-37.5 -7t-37.5 7t-33 22t-22 33.5t-7 37.5t7 37.5t22 33.5t33 22t37.5 7t37.5 -7t33 -22zM785 100h-387l-68 -125h-171l432 792l433 -792h-171zM703 250l-112 204l-111 -204h223z" />
    <glyph glyph-name="AE" unicode="&#xc6;" horiz-adv-x="1348" 
d="M788 575v-225h300v-150h-300v-75h400v-150h-550v100h-253l-54 -100h-171l409 750h619v-150h-400zM638 225v313l-171 -313h171z" />
    <glyph glyph-name="Ccedilla" unicode="&#xc7;" horiz-adv-x="939" 
d="M750 235l119 -91l-15 -20q-45 -59 -108.5 -97t-140.5 -49v-103h-125v75h25v28q-69 9 -128 42t-103 82.5t-69 113t-25 134.5q0 78 29.5 146t80.5 119t119 80.5t146 29.5q92 0 170 -40.5t129 -108.5l15 -20l-119 -91l-15 20q-31 42 -77.5 66t-102.5 24q-47 0 -87.5 -17.5
t-71.5 -48.5t-48.5 -72t-17.5 -87q0 -47 17.5 -87.5t48.5 -71.5t71.5 -48.5t87.5 -17.5q56 0 102.5 24t77.5 66z" />
    <glyph glyph-name="Egrave" unicode="&#xc8;" horiz-adv-x="980" 
d="M674 758l-287 88l29 96l287 -88zM270 725h550v-150h-400v-225h300v-150h-300v-75h400v-150h-550v750z" />
    <glyph glyph-name="Eacute" unicode="&#xc9;" horiz-adv-x="980" 
d="M387 854l287 88l29 -96l-287 -88zM270 725h550v-150h-400v-225h300v-150h-300v-75h400v-150h-550v750z" />
    <glyph glyph-name="Ecircumflex" unicode="&#xca;" horiz-adv-x="980" 
d="M674 758l-129 40l-129 -40l-29 96l158 48l158 -48zM270 725h550v-150h-400v-225h300v-150h-300v-75h400v-150h-550v750z" />
    <glyph glyph-name="Edieresis" unicode="&#xcb;" horiz-adv-x="980" 
d="M448 903q23 -22 23 -53t-23 -53q-22 -22 -52.5 -22t-53.5 22q-22 22 -22 53t22 53q23 22 53.5 22t52.5 -22zM748 903q23 -22 23 -53t-23 -53q-22 -22 -52.5 -22t-53.5 22q-22 22 -22 53t22 53q23 22 53.5 22t52.5 -22zM270 725h550v-150h-400v-225h300v-150h-300v-75h400
v-150h-550v750z" />
    <glyph glyph-name="Igrave" unicode="&#xcc;" 
d="M474 758l-287 88l29 96l287 -88zM420 -25h-150v750h150v-750z" />
    <glyph glyph-name="Iacute" unicode="&#xcd;" 
d="M187 854l287 88l29 -96l-287 -88zM420 -25h-150v750h150v-750z" />
    <glyph glyph-name="Icircumflex" unicode="&#xce;" 
d="M473 758l-128 40l-129 -40l-30 96l159 48l158 -48zM420 -25h-150v750h150v-750z" />
    <glyph glyph-name="Idieresis" unicode="&#xcf;" 
d="M248 903q22 -22 22 -53t-22 -53q-23 -22 -53.5 -22t-52.5 22q-23 22 -23 53t23 53q22 22 52.5 22t53.5 -22zM548 903q22 -22 22 -53t-22 -53q-23 -22 -53.5 -22t-52.5 22q-23 22 -23 53t23 53q22 22 52.5 22t53.5 -22zM420 -25h-150v750h150v-750z" />
    <glyph glyph-name="Eth" unicode="&#xd0;" horiz-adv-x="1050" 
d="M595 725q78 0 146 -29.5t119 -80.5t80.5 -119t29.5 -146t-29.5 -146t-80.5 -119t-119 -80.5t-146 -29.5h-275v200h-100v150h100v400h275zM595 125q46 0 87 17.5t72 48.5t48.5 71.5t17.5 87.5q0 46 -17.5 87t-48.5 72t-72 48.5t-87 17.5h-125v-250h100v-150h-100v-50h125z
" />
    <glyph glyph-name="Ntilde" unicode="&#xd1;" horiz-adv-x="1090" 
d="M705 782q-32 -10 -66.5 -7t-66.5 20q-28 15 -58 5q-11 -2 -25 -13l-19 -16l-63 78l19 16q29 22 59 31q32 10 66.5 7t66.5 -20q28 -15 58 -5q14 5 25 13l19 16l63 -78l-19 -15q-25 -21 -59 -32zM270 725h40l460 -438v438h150v-750h-41l-459 438v-438h-150v750z" />
    <glyph glyph-name="Ograve" unicode="&#xd2;" horiz-adv-x="990" 
d="M674 758l-287 88l29 96l287 -88zM920 350q0 -78 -29.5 -146t-80.5 -119t-119 -80.5t-146 -29.5t-146 29.5t-119 80.5t-80.5 119t-29.5 146t29.5 146t80.5 119t119 80.5t146 29.5t146 -29.5t119 -80.5t80.5 -119t29.5 -146zM545 575q-47 0 -87.5 -17.5t-71.5 -48.5
t-48.5 -72t-17.5 -87q0 -47 17.5 -87.5t48.5 -71.5t71.5 -48.5t87.5 -17.5q46 0 87 17.5t72 48.5t48.5 71.5t17.5 87.5q0 46 -17.5 87t-48.5 72t-72 48.5t-87 17.5z" />
    <glyph glyph-name="Oacute" unicode="&#xd3;" horiz-adv-x="990" 
d="M387 854l287 88l29 -96l-286 -88zM920 350q0 -78 -29.5 -146t-80.5 -119t-119 -80.5t-146 -29.5t-146 29.5t-119 80.5t-80.5 119t-29.5 146t29.5 146t80.5 119t119 80.5t146 29.5t146 -29.5t119 -80.5t80.5 -119t29.5 -146zM545 575q-47 0 -87.5 -17.5t-71.5 -48.5
t-48.5 -72t-17.5 -87q0 -47 17.5 -87.5t48.5 -71.5t71.5 -48.5t87.5 -17.5t88 17.5t71.5 48.5t48 71.5t17.5 87.5q0 46 -17.5 87t-48 72t-71.5 48.5t-88 17.5z" />
    <glyph glyph-name="Ocircumflex" unicode="&#xd4;" horiz-adv-x="990" 
d="M674 758l-129 40l-129 -40l-29 96l158 48l158 -48zM920 350q0 -78 -29.5 -146t-80.5 -119t-119 -80.5t-146 -29.5t-146 29.5t-119 80.5t-80.5 119t-29.5 146t29.5 146t80.5 119t119 80.5t146 29.5t146 -29.5t119 -80.5t80.5 -119t29.5 -146zM545 575q-47 0 -87.5 -17.5
t-71.5 -48.5t-48.5 -72t-17.5 -87q0 -47 17.5 -87.5t48.5 -71.5t71.5 -48.5t87.5 -17.5q46 0 87 17.5t72 48.5t48.5 71.5t17.5 87.5q0 46 -17.5 87t-48.5 72t-72 48.5t-87 17.5z" />
    <glyph glyph-name="Otilde" unicode="&#xd5;" horiz-adv-x="990" 
d="M654 782q-32 -10 -66.5 -7t-66.5 20q-14 8 -28.5 9t-28.5 -4q-13 -3 -25 -13l-19 -16l-64 78l19 16q29 23 60 31q32 10 66.5 7t66.5 -20q14 -8 28.5 -9t28.5 4q16 5 26 13l18 16l64 -78l-19 -15q-25 -21 -60 -32zM920 350q0 -78 -29.5 -146t-80.5 -119t-119 -80.5
t-146 -29.5t-146.5 29.5t-119 80.5t-80 119t-29.5 146t29.5 146t80 119t119 80.5t146.5 29.5t146 -29.5t119 -80.5t80.5 -119t29.5 -146zM545 575q-47 0 -88 -17.5t-71.5 -48.5t-48 -72t-17.5 -87q0 -47 17.5 -87.5t48 -71.5t71.5 -48.5t88 -17.5q46 0 87 17.5t72 48.5
t48.5 71.5t17.5 87.5q0 46 -17.5 87t-48.5 72t-72 48.5t-87 17.5z" />
    <glyph glyph-name="Odieresis" unicode="&#xd6;" horiz-adv-x="990" 
d="M448 903q22 -22 22 -53t-22 -53q-23 -22 -53.5 -22t-52.5 22q-23 22 -23 53t23 53q22 22 52.5 22t53.5 -22zM748 903q22 -22 22 -53t-22 -53q-23 -22 -53.5 -22t-52.5 22q-23 22 -23 53t23 53q22 22 52.5 22t53.5 -22zM920 350q0 -78 -29.5 -146t-80.5 -119t-119 -80.5
t-146 -29.5t-146 29.5t-119 80.5t-80.5 119t-29.5 146t29.5 146t80.5 119t119 80.5t146 29.5t146 -29.5t119 -80.5t80.5 -119t29.5 -146zM545 575q-47 0 -88 -17.5t-71.5 -48.5t-48 -72t-17.5 -87q0 -47 17.5 -87.5t48 -71.5t71.5 -48.5t88 -17.5q46 0 87 17.5t72 48.5
t48.5 71.5t17.5 87.5q0 46 -17.5 87t-48.5 72t-72 48.5t-87 17.5z" />
    <glyph glyph-name="multiply" unicode="&#xd7;" horiz-adv-x="817" 
d="M717 491l-142 -141l142 -141l-107 -106l-141 141l-141 -141l-106 106l141 141l-141 141l106 106l141 -141l141 141z" />
    <glyph glyph-name="Oslash" unicode="&#xd8;" horiz-adv-x="1038" 
d="M882 557q29 -45 45.5 -97.5t16.5 -109.5q0 -78 -29.5 -146t-80.5 -119t-119 -80.5t-146 -29.5q-57 0 -109.5 16.5t-97.5 45.5l-76 -76l-106 106l76 76q-29 45 -45.5 97.5t-16.5 109.5q0 78 29.5 146t80.5 119t119 80.5t146 29.5q57 0 109.5 -16.5t97.5 -45.5l76 76
l106 -106zM344 350q0 -51 22 -97l300 300q-46 22 -97 22q-47 0 -87.5 -17.5t-71.5 -48.5t-48.5 -72t-17.5 -87zM794 350q0 51 -22 97l-300 -300q46 -22 97 -22q46 0 87 17.5t72 48.5t48.5 71.5t17.5 87.5z" />
    <glyph glyph-name="Ugrave" unicode="&#xd9;" horiz-adv-x="1050" 
d="M704 758l-287 88l29 96l287 -88zM900 300q0 -67 -25.5 -126t-70 -103.5t-103.5 -70t-126 -25.5t-126 25.5t-103.5 70t-70 103.5t-25.5 126v425h150v-425q0 -36 13.5 -68t37.5 -56t56 -37.5t68 -13.5t68 13.5t56 37.5t37.5 56t13.5 68v425h150v-425z" />
    <glyph glyph-name="Uacute" unicode="&#xda;" horiz-adv-x="1050" 
d="M417 854l287 88l29 -96l-287 -88zM900 300q0 -67 -25.5 -126t-70 -103.5t-103.5 -70t-126 -25.5t-126 25.5t-103.5 70t-70 103.5t-25.5 126v425h150v-425q0 -36 13.5 -68t37.5 -56t56 -37.5t68 -13.5t68 13.5t56 37.5t37.5 56t13.5 68v425h150v-425z" />
    <glyph glyph-name="Ucircumflex" unicode="&#xdb;" horiz-adv-x="1050" 
d="M703 758l-128 40l-129 -40l-29 96l158 48l158 -48zM900 300q0 -67 -25.5 -126t-70 -103.5t-103.5 -70t-126 -25.5q-68 0 -127 25.5t-103 70t-69.5 103.5t-25.5 126v425h150v-425q0 -36 13.5 -68t37.5 -56t56 -37.5t68 -13.5t68 13.5t55.5 37.5t37.5 56t14 68v425h150
v-425z" />
    <glyph glyph-name="Udieresis" unicode="&#xdc;" horiz-adv-x="1050" 
d="M478 903q23 -22 23 -53t-23 -53q-22 -22 -52.5 -22t-53.5 22q-22 22 -22 53t22 53q23 22 53.5 22t52.5 -22zM778 903q23 -22 23 -53t-23 -53q-22 -22 -52.5 -22t-53.5 22q-22 22 -22 53t22 53q23 22 53.5 22t52.5 -22zM900 300q0 -67 -25.5 -126t-69.5 -103.5t-103.5 -70
t-126.5 -25.5t-126 25.5t-103.5 70t-70 103.5t-25.5 126v425h150v-425q0 -36 14 -68t37.5 -56t55.5 -37.5t68 -13.5t68 13.5t56 37.5t37.5 56t13.5 68v425h150v-425z" />
    <glyph glyph-name="Yacute" unicode="&#xdd;" horiz-adv-x="893" 
d="M338 854l287 88l29 -96l-286 -88zM120 725h177l199 -318l200 318h177l-302 -481v-269h-150v269z" />
    <glyph glyph-name="Thorn" unicode="&#xde;" horiz-adv-x="930" 
d="M545 625q57 0 107 -21.5t87.5 -59t59 -87.5t21.5 -107t-21.5 -107t-59 -87.5t-87.5 -59t-107 -21.5h-125v-100h-150v750h150v-100h125zM545 225q26 0 48.5 10t39.5 27t27 39.5t10 48.5t-10 48.5t-27 39.5t-39.5 27t-48.5 10h-125v-250h125z" />
    <glyph glyph-name="germandbls" unicode="&#xdf;" horiz-adv-x="890" 
d="M270 500q0 46 17.5 87t48.5 72t71.5 48.5t87.5 17.5q46 0 87 -17.5t72 -48.5t48.5 -72t17.5 -87q0 -47 -17.5 -87.5t-48.5 -71.5q-22 -22 -22 -53t22 -53q31 -31 48.5 -71.5t17.5 -87.5v-101h-150v101q0 31 -22 53q-33 33 -49.5 74.5t-16.5 84.5t16.5 84.5t49.5 74.5
q22 22 22 53t-22 53t-53 22t-53 -22t-22 -53v-525h-150v525z" />
    <glyph glyph-name="agrave" unicode="&#xe0;" horiz-adv-x="1085" 
d="M719 758l-287 88l30 96l287 -88zM786 100h-387l-68 -125h-171l433 791l432 -791h-171zM704 250l-111 204l-112 -204h223z" />
    <glyph glyph-name="aacute" unicode="&#xe1;" horiz-adv-x="1085" 
d="M433 854l286 88l30 -96l-287 -88zM786 100h-387l-68 -125h-171l433 791l432 -791h-171zM704 250l-111 204l-112 -204h223z" />
    <glyph glyph-name="acircumflex" unicode="&#xe2;" horiz-adv-x="1085" 
d="M722 758l-129 40l-129 -40l-29 96l158 48l158 -48zM786 100h-386l-68 -125h-171l432 791l432 -791h-170zM704 250l-111 204l-111 -204h222z" />
    <glyph glyph-name="atilde" unicode="&#xe3;" horiz-adv-x="1085" 
d="M703 782q-32 -10 -66.5 -7t-66.5 20q-28 15 -58 5q-11 -2 -25 -13l-19 -16l-63 78l19 15q25 21 59 32q32 10 66.5 7t66.5 -20q28 -15 58 -5q7 2 13 5t12 8l19 16l63 -78l-19 -15q-25 -21 -59 -32zM786 100h-386l-68 -125h-171l432 791l432 -791h-170zM704 250l-111 204
l-111 -204h222z" />
    <glyph glyph-name="adieresis" unicode="&#xe4;" horiz-adv-x="1085" 
d="M495 903q23 -22 23 -53t-23 -53q-22 -22 -53 -22t-53 22t-22 53t22 53t53 22t53 -22zM795 903q23 -22 23 -53t-23 -53q-22 -22 -53 -22t-53 22t-22 53t22 53t53 22t53 -22zM785 100h-386l-68 -125h-171l432 791l433 -791h-171zM703 250l-111 204l-111 -204h222z" />
    <glyph glyph-name="aring" unicode="&#xe5;" horiz-adv-x="1085" 
d="M662 946q15 -15 22 -33.5t7 -37.5t-7 -37.5t-22 -33.5t-33 -22t-37.5 -7t-37.5 7t-33 22t-22 33.5t-7 37.5t7 37.5t22 33.5t33 22t37.5 7t37.5 -7t33 -22zM785 100h-387l-68 -125h-171l432 792l433 -792h-171zM703 250l-112 204l-111 -204h223z" />
    <glyph glyph-name="ae" unicode="&#xe6;" horiz-adv-x="1348" 
d="M788 575v-225h300v-150h-300v-75h400v-150h-550v100h-253l-54 -100h-171l409 750h619v-150h-400zM638 225v313l-171 -313h171z" />
    <glyph glyph-name="ccedilla" unicode="&#xe7;" horiz-adv-x="939" 
d="M750 235l119 -91l-15 -20q-45 -59 -108.5 -97t-140.5 -49v-103h-125v75h25v28q-69 9 -128 42t-103 82.5t-69 113t-25 134.5q0 78 29.5 146t80.5 119t119 80.5t146 29.5q92 0 170 -40.5t129 -108.5l15 -20l-119 -91l-15 20q-31 42 -77.5 66t-102.5 24q-47 0 -87.5 -17.5
t-71.5 -48.5t-48.5 -72t-17.5 -87q0 -47 17.5 -87.5t48.5 -71.5t71.5 -48.5t87.5 -17.5q56 0 102.5 24t77.5 66z" />
    <glyph glyph-name="egrave" unicode="&#xe8;" horiz-adv-x="980" 
d="M674 758l-287 88l29 96l287 -88zM270 725h550v-150h-400v-225h300v-150h-300v-75h400v-150h-550v750z" />
    <glyph glyph-name="eacute" unicode="&#xe9;" horiz-adv-x="980" 
d="M387 854l287 88l29 -96l-287 -88zM270 725h550v-150h-400v-225h300v-150h-300v-75h400v-150h-550v750z" />
    <glyph glyph-name="ecircumflex" unicode="&#xea;" horiz-adv-x="980" 
d="M674 758l-129 40l-129 -40l-29 96l158 48l158 -48zM270 725h550v-150h-400v-225h300v-150h-300v-75h400v-150h-550v750z" />
    <glyph glyph-name="edieresis" unicode="&#xeb;" horiz-adv-x="980" 
d="M448 903q23 -22 23 -53t-23 -53q-22 -22 -52.5 -22t-53.5 22q-22 22 -22 53t22 53q23 22 53.5 22t52.5 -22zM748 903q23 -22 23 -53t-23 -53q-22 -22 -52.5 -22t-53.5 22q-22 22 -22 53t22 53q23 22 53.5 22t52.5 -22zM270 725h550v-150h-400v-225h300v-150h-300v-75h400
v-150h-550v750z" />
    <glyph glyph-name="igrave" unicode="&#xec;" horiz-adv-x="565" 
d="M474 758l-287 88l29 96l287 -88zM420 -25h-150v750h150v-750z" />
    <glyph glyph-name="iacute" unicode="&#xed;" 
d="M187 854l287 88l29 -96l-287 -88zM420 -25h-150v750h150v-750z" />
    <glyph glyph-name="icircumflex" unicode="&#xee;" 
d="M473 758l-128 40l-129 -40l-30 96l159 48l158 -48zM420 -25h-150v750h150v-750z" />
    <glyph glyph-name="idieresis" unicode="&#xef;" 
d="M248 903q22 -22 22 -53t-22 -53q-23 -22 -53.5 -22t-52.5 22q-23 22 -23 53t23 53q22 22 52.5 22t53.5 -22zM548 903q22 -22 22 -53t-22 -53q-23 -22 -53.5 -22t-52.5 22q-23 22 -23 53t23 53q22 22 52.5 22t53.5 -22zM420 -25h-150v750h150v-750z" />
    <glyph glyph-name="eth" unicode="&#xf0;" horiz-adv-x="1050" 
d="M595 725q78 0 146 -29.5t119 -80.5t80.5 -119t29.5 -146t-29.5 -146t-80.5 -119t-119 -80.5t-146 -29.5h-275v200h-100v150h100v400h275zM595 125q46 0 87 17.5t72 48.5t48.5 71.5t17.5 87.5q0 46 -17.5 87t-48.5 72t-72 48.5t-87 17.5h-125v-250h100v-150h-100v-50h125z
" />
    <glyph glyph-name="ntilde" unicode="&#xf1;" horiz-adv-x="1090" 
d="M705 782q-32 -10 -66.5 -7t-66.5 20q-28 15 -58 5q-11 -2 -25 -13l-19 -16l-63 78l19 16q29 22 59 31q32 10 66.5 7t66.5 -20q28 -15 58 -5q14 5 25 13l19 16l63 -78l-19 -15q-25 -21 -59 -32zM270 725h40l460 -438v438h150v-750h-41l-459 438v-438h-150v750z" />
    <glyph glyph-name="ograve" unicode="&#xf2;" horiz-adv-x="990" 
d="M674 758l-287 88l29 96l287 -88zM920 350q0 -78 -29.5 -146t-80.5 -119t-119 -80.5t-146 -29.5t-146 29.5t-119 80.5t-80.5 119t-29.5 146t29.5 146t80.5 119t119 80.5t146 29.5t146 -29.5t119 -80.5t80.5 -119t29.5 -146zM545 575q-47 0 -87.5 -17.5t-71.5 -48.5
t-48.5 -72t-17.5 -87q0 -47 17.5 -87.5t48.5 -71.5t71.5 -48.5t87.5 -17.5q46 0 87 17.5t72 48.5t48.5 71.5t17.5 87.5q0 46 -17.5 87t-48.5 72t-72 48.5t-87 17.5z" />
    <glyph glyph-name="oacute" unicode="&#xf3;" horiz-adv-x="990" 
d="M387 854l287 88l29 -96l-286 -88zM920 350q0 -78 -29.5 -146t-80.5 -119t-119 -80.5t-146 -29.5t-146 29.5t-119 80.5t-80.5 119t-29.5 146t29.5 146t80.5 119t119 80.5t146 29.5t146 -29.5t119 -80.5t80.5 -119t29.5 -146zM545 575q-47 0 -87.5 -17.5t-71.5 -48.5
t-48.5 -72t-17.5 -87q0 -47 17.5 -87.5t48.5 -71.5t71.5 -48.5t87.5 -17.5t88 17.5t71.5 48.5t48 71.5t17.5 87.5q0 46 -17.5 87t-48 72t-71.5 48.5t-88 17.5z" />
    <glyph glyph-name="ocircumflex" unicode="&#xf4;" horiz-adv-x="990" 
d="M674 758l-129 40l-129 -40l-29 96l158 48l158 -48zM920 350q0 -78 -29.5 -146t-80.5 -119t-119 -80.5t-146 -29.5t-146 29.5t-119 80.5t-80.5 119t-29.5 146t29.5 146t80.5 119t119 80.5t146 29.5t146 -29.5t119 -80.5t80.5 -119t29.5 -146zM545 575q-47 0 -87.5 -17.5
t-71.5 -48.5t-48.5 -72t-17.5 -87q0 -47 17.5 -87.5t48.5 -71.5t71.5 -48.5t87.5 -17.5q46 0 87 17.5t72 48.5t48.5 71.5t17.5 87.5q0 46 -17.5 87t-48.5 72t-72 48.5t-87 17.5z" />
    <glyph glyph-name="otilde" unicode="&#xf5;" horiz-adv-x="990" 
d="M654 782q-32 -10 -66.5 -7t-66.5 20q-14 8 -28.5 9t-28.5 -4q-13 -3 -25 -13l-19 -16l-64 78l19 16q29 23 60 31q32 10 66.5 7t66.5 -20q14 -8 28.5 -9t28.5 4q16 5 26 13l18 16l64 -78l-19 -15q-25 -21 -60 -32zM920 350q0 -78 -29.5 -146t-80.5 -119t-119 -80.5
t-146 -29.5t-146.5 29.5t-119 80.5t-80 119t-29.5 146t29.5 146t80 119t119 80.5t146.5 29.5t146 -29.5t119 -80.5t80.5 -119t29.5 -146zM545 575q-47 0 -88 -17.5t-71.5 -48.5t-48 -72t-17.5 -87q0 -47 17.5 -87.5t48 -71.5t71.5 -48.5t88 -17.5q46 0 87 17.5t72 48.5
t48.5 71.5t17.5 87.5q0 46 -17.5 87t-48.5 72t-72 48.5t-87 17.5z" />
    <glyph glyph-name="odieresis" unicode="&#xf6;" horiz-adv-x="990" 
d="M448 903q22 -22 22 -53t-22 -53q-23 -22 -53.5 -22t-52.5 22q-23 22 -23 53t23 53q22 22 52.5 22t53.5 -22zM748 903q22 -22 22 -53t-22 -53q-23 -22 -53.5 -22t-52.5 22q-23 22 -23 53t23 53q22 22 52.5 22t53.5 -22zM920 350q0 -78 -29.5 -146t-80.5 -119t-119 -80.5
t-146 -29.5t-146 29.5t-119 80.5t-80.5 119t-29.5 146t29.5 146t80.5 119t119 80.5t146 29.5t146 -29.5t119 -80.5t80.5 -119t29.5 -146zM545 575q-47 0 -88 -17.5t-71.5 -48.5t-48 -72t-17.5 -87q0 -47 17.5 -87.5t48 -71.5t71.5 -48.5t88 -17.5q46 0 87 17.5t72 48.5
t48.5 71.5t17.5 87.5q0 46 -17.5 87t-48.5 72t-72 48.5t-87 17.5z" />
    <glyph glyph-name="divide" unicode="&#xf7;" horiz-adv-x="850" 
d="M546 621q15 -15 22 -33.5t7 -37.5t-7 -37.5t-22 -33.5t-33.5 -22t-37.5 -7t-37.5 7t-33.5 22t-22 33.5t-7 37.5t7 37.5t22 33.5t33.5 22t37.5 7t37.5 -7t33.5 -22zM750 275h-550v150h550v-150zM546 221q15 -15 22 -33.5t7 -37.5t-7 -37.5t-22 -33.5t-33.5 -22t-37.5 -7
t-37.5 7t-33.5 22t-22 33.5t-7 37.5t7 37.5t22 33.5t33.5 22t37.5 7t37.5 -7t33.5 -22z" />
    <glyph glyph-name="oslash" unicode="&#xf8;" horiz-adv-x="1038" 
d="M882 557q29 -45 45.5 -97.5t16.5 -109.5q0 -78 -29.5 -146t-80.5 -119t-119 -80.5t-146 -29.5q-57 0 -109.5 16.5t-97.5 45.5l-76 -76l-106 106l76 76q-29 45 -45.5 97.5t-16.5 109.5q0 78 29.5 146t80.5 119t119 80.5t146 29.5q57 0 109.5 -16.5t97.5 -45.5l76 76
l106 -106zM344 350q0 -51 22 -97l300 300q-46 22 -97 22q-47 0 -87.5 -17.5t-71.5 -48.5t-48.5 -72t-17.5 -87zM794 350q0 51 -22 97l-300 -300q46 -22 97 -22q46 0 87 17.5t72 48.5t48.5 71.5t17.5 87.5z" />
    <glyph glyph-name="ugrave" unicode="&#xf9;" horiz-adv-x="1050" 
d="M704 758l-287 88l29 96l287 -88zM900 300q0 -67 -25.5 -126t-70 -103.5t-103.5 -70t-126 -25.5t-126 25.5t-103.5 70t-70 103.5t-25.5 126v425h150v-425q0 -36 13.5 -68t37.5 -56t56 -37.5t68 -13.5t68 13.5t56 37.5t37.5 56t13.5 68v425h150v-425z" />
    <glyph glyph-name="uacute" unicode="&#xfa;" horiz-adv-x="1050" 
d="M417 854l287 88l29 -96l-287 -88zM900 300q0 -67 -25.5 -126t-70 -103.5t-103.5 -70t-126 -25.5t-126 25.5t-103.5 70t-70 103.5t-25.5 126v425h150v-425q0 -36 13.5 -68t37.5 -56t56 -37.5t68 -13.5t68 13.5t56 37.5t37.5 56t13.5 68v425h150v-425z" />
    <glyph glyph-name="ucircumflex" unicode="&#xfb;" horiz-adv-x="1050" 
d="M703 758l-128 40l-129 -40l-29 96l158 48l158 -48zM900 300q0 -67 -25.5 -126t-70 -103.5t-103.5 -70t-126 -25.5q-68 0 -127 25.5t-103 70t-69.5 103.5t-25.5 126v425h150v-425q0 -36 13.5 -68t37.5 -56t56 -37.5t68 -13.5t68 13.5t55.5 37.5t37.5 56t14 68v425h150
v-425z" />
    <glyph glyph-name="udieresis" unicode="&#xfc;" horiz-adv-x="1050" 
d="M478 903q23 -22 23 -53t-23 -53q-22 -22 -52.5 -22t-53.5 22q-22 22 -22 53t22 53q23 22 53.5 22t52.5 -22zM778 903q23 -22 23 -53t-23 -53q-22 -22 -52.5 -22t-53.5 22q-22 22 -22 53t22 53q23 22 53.5 22t52.5 -22zM900 300q0 -67 -25.5 -126t-69.5 -103.5t-103.5 -70
t-126.5 -25.5t-126 25.5t-103.5 70t-70 103.5t-25.5 126v425h150v-425q0 -36 14 -68t37.5 -56t55.5 -37.5t68 -13.5t68 13.5t56 37.5t37.5 56t13.5 68v425h150v-425z" />
    <glyph glyph-name="yacute" unicode="&#xfd;" horiz-adv-x="893" 
d="M338 854l287 88l29 -96l-286 -88zM120 725h177l199 -318l200 318h177l-302 -481v-269h-150v269z" />
    <glyph glyph-name="thorn" unicode="&#xfe;" horiz-adv-x="930" 
d="M545 625q57 0 107 -21.5t87.5 -59t59 -87.5t21.5 -107t-21.5 -107t-59 -87.5t-87.5 -59t-107 -21.5h-125v-100h-150v750h150v-100h125zM545 225q26 0 48.5 10t39.5 27t27 39.5t10 48.5t-10 48.5t-27 39.5t-39.5 27t-48.5 10h-125v-250h125z" />
    <glyph glyph-name="ydieresis" unicode="&#xff;" horiz-adv-x="893" 
d="M399 903q23 -22 23 -53t-23 -53q-22 -22 -53 -22t-53 22t-22 53t22 53t53 22t53 -22zM699 903q23 -22 23 -53t-23 -53q-22 -22 -53 -22t-53 22t-22 53t22 53t53 22t53 -22zM120 725h177l199 -318l200 318h177l-302 -481v-269h-150v269z" />
    <glyph glyph-name="dotlessi" unicode="&#x131;" 
d="M420 -25h-150v750h150v-750z" />
    <glyph glyph-name="Lslash" unicode="&#x141;" horiz-adv-x="1000" 
d="M900 125v-150h-550v275l-100 -30v156l100 30v319h150v-275l100 30v-156l-100 -30v-169h400z" />
    <glyph glyph-name="lslash" unicode="&#x142;" horiz-adv-x="1000" 
d="M900 125v-150h-550v275l-100 -30v156l100 30v319h150v-275l100 30v-156l-100 -30v-169h400z" />
    <glyph glyph-name="OE" unicode="&#x152;" horiz-adv-x="1305" 
d="M745 575v-225h300v-150h-300v-75h400v-150h-600q-78 0 -146 29.5t-119 80.5t-80.5 119t-29.5 146t29.5 146t80.5 119t119 80.5t146 29.5h600v-150h-400zM595 125v450h-50q-47 0 -87.5 -17.5t-71.5 -48.5t-48.5 -72t-17.5 -87q0 -47 17.5 -87.5t48.5 -71.5t71.5 -48.5
t87.5 -17.5h50z" />
    <glyph glyph-name="oe" unicode="&#x153;" horiz-adv-x="1305" 
d="M745 575v-225h300v-150h-300v-75h400v-150h-600q-78 0 -146 29.5t-119 80.5t-80.5 119t-29.5 146t29.5 146t80.5 119t119 80.5t146 29.5h600v-150h-400zM595 125v450h-50q-47 0 -87.5 -17.5t-71.5 -48.5t-48.5 -72t-17.5 -87q0 -47 17.5 -87.5t48.5 -71.5t71.5 -48.5
t87.5 -17.5h50z" />
    <glyph glyph-name="Scaron" unicode="&#x160;" horiz-adv-x="780" 
d="M603 807l-158 -49l-158 49l29 95l129 -39l129 39zM445 425q46 0 87 -17.5t72 -48.5t48.5 -72t17.5 -87q0 -47 -17.5 -87.5t-48.5 -71.5t-72 -48.5t-87 -17.5q-40 0 -76 13t-65 36.5t-49 55t-29 69.5l144 51q0 -31 22 -53t53 -22t53 22t22 53t-22 53t-53 22
q-47 0 -87.5 17.5t-71.5 48.5t-48.5 71.5t-17.5 87.5q0 46 17.5 87t48.5 72t71.5 48.5t87.5 17.5q40 0 76 -13t65 -36.5t49 -55.5t29 -69l-144 -51q0 31 -22 53t-53 22t-53 -22t-22 -53t22 -53t53 -22z" />
    <glyph glyph-name="scaron" unicode="&#x161;" horiz-adv-x="780" 
d="M603 807l-158 -49l-158 49l29 95l129 -39l129 39zM445 425q46 0 87 -17.5t72 -48.5t48.5 -72t17.5 -87q0 -47 -17.5 -87.5t-48.5 -71.5t-72 -48.5t-87 -17.5q-40 0 -76 13t-65 36.5t-49 55t-29 69.5l144 51q0 -31 22 -53t53 -22t53 22t22 53t-22 53t-53 22
q-47 0 -87.5 17.5t-71.5 48.5t-48.5 71.5t-17.5 87.5q0 46 17.5 87t48.5 72t71.5 48.5t87.5 17.5q40 0 76 -13t65 -36.5t49 -55.5t29 -69l-144 -51q0 31 -22 53t-53 22t-53 -22t-22 -53t22 -53t53 -22z" />
    <glyph glyph-name="Ydieresis" unicode="&#x178;" horiz-adv-x="893" 
d="M399 903q23 -22 23 -53t-23 -53q-22 -22 -53 -22t-53 22t-22 53t22 53t53 22t53 -22zM699 903q23 -22 23 -53t-23 -53q-22 -22 -53 -22t-53 22t-22 53t22 53t53 22t53 -22zM120 725h177l199 -318l200 318h177l-302 -481v-269h-150v269z" />
    <glyph glyph-name="Zcaron" unicode="&#x17d;" horiz-adv-x="864" 
d="M648 807l-158 -49l-158 49l29 95l129 -39l128 39zM222 725h552l-330 -600h313v-150h-567l330 600h-298v150z" />
    <glyph glyph-name="zcaron" unicode="&#x17e;" horiz-adv-x="864" 
d="M648 807l-158 -49l-158 49l29 95l129 -39l128 39zM222 725h552l-330 -600h313v-150h-567l330 600h-298v150z" />
    <glyph glyph-name="florin" unicode="&#x192;" horiz-adv-x="774" 
d="M529 475h130l-20 -150h-130l-31 -223q-5 -36 -23 -66t-44.5 -50t-60 -29t-69.5 -4q-32 4 -59 18.5t-47 36.5t-32 50t-13 59l146 30l6 -26q2 -16 21 -20q10 -2 18 4.5t10 16.5l28 203h-100l21 150h99l17 122q5 36 23 65.5t45 49.5t60 29.5t69 4.5q32 -5 59 -19.5t47 -36.5
t31.5 -49.5t13.5 -58.5l-146 -30l-5 25q-3 18 -21 20q-11 2 -19 -4t-10 -17z" />
    <glyph glyph-name="circumflex" unicode="&#x2c6;" horiz-adv-x="616" 
d="M487 758l-129 40l-129 -40l-29 96l158 48l158 -48z" />
    <glyph glyph-name="caron" unicode="&#x2c7;" horiz-adv-x="616" 
d="M516 807l-158 -49l-158 49l29 95l129 -39l128 39z" />
    <glyph glyph-name="dotaccent" unicode="&#x2d9;" horiz-adv-x="450" 
d="M328 903q22 -22 22 -53t-22 -53t-53 -22t-53 22t-22 53t22 53t53 22t53 -22z" />
    <glyph glyph-name="ring" unicode="&#x2da;" horiz-adv-x="502" 
d="M372 946q15 -15 22 -33.5t7 -37.5t-7 -37.5t-22 -33.5t-33.5 -22t-37.5 -7t-37.5 7t-33.5 22t-22 33.5t-7 37.5t7 37.5t22 33.5t33.5 22t37.5 7t37.5 -7t33.5 -22z" />
    <glyph glyph-name="tilde" unicode="&#x2dc;" horiz-adv-x="676" 
d="M498 782q-32 -10 -67 -7t-67 20q-26 15 -57 5q-11 -2 -25 -13l-19 -16l-63 78l19 15q25 21 59 32q32 10 66.5 7t66.5 -20q28 -15 58 -5q7 2 13 5t12 8l19 16l63 -78l-19 -15q-25 -21 -59 -32z" />
    <glyph glyph-name="endash" unicode="&#x2013;" horiz-adv-x="850" 
d="M750 275h-550v150h550v-150z" />
    <glyph glyph-name="emdash" unicode="&#x2014;" horiz-adv-x="1350" 
d="M1250 275h-1050v150h1050v-150z" />
    <glyph glyph-name="quoteleft" unicode="&#x2018;" horiz-adv-x="450" 
d="M350 475h-150v131l59 119h91v-250z" />
    <glyph glyph-name="quoteright" unicode="&#x2019;" horiz-adv-x="450" 
d="M200 725h150v-131l-60 -119h-90v250z" />
    <glyph glyph-name="quotesinglbase" unicode="&#x201a;" horiz-adv-x="450" 
d="M200 125h150v-131l-60 -119h-90v250z" />
    <glyph glyph-name="quotedblleft" unicode="&#x201c;" horiz-adv-x="650" 
d="M550 475h-150v131l59 119h91v-250zM350 475h-150v131l59 119h91v-250z" />
    <glyph glyph-name="quotedblright" unicode="&#x201d;" horiz-adv-x="650" 
d="M400 725h150v-131l-59 -119h-91v250zM200 725h150v-131l-59 -119h-91v250z" />
    <glyph glyph-name="quotedblbase" unicode="&#x201e;" horiz-adv-x="650" 
d="M400 125h150v-131l-59 -119h-91v250zM200 125h150v-131l-59 -119h-91v250z" />
    <glyph glyph-name="dagger" unicode="&#x2020;" horiz-adv-x="750" 
d="M650 425h-150v-450h-150v450h-150v150h150v150h150v-150h150v-150z" />
    <glyph glyph-name="daggerdbl" unicode="&#x2021;" horiz-adv-x="750" 
d="M500 425v-150h150v-150h-150v-150h-150v150h-150v150h150v150h-150v150h150v150h150v-150h150v-150h-150z" />
    <glyph glyph-name="bullet" unicode="&#x2022;" horiz-adv-x="550" 
d="M325 475q26 0 48.5 -10t39.5 -27t27 -39.5t10 -48.5t-10 -48.5t-27 -39.5t-39.5 -27t-48.5 -10t-48.5 10t-39.5 27t-27 39.5t-10 48.5t10 48.5t27 39.5t39.5 27t48.5 10z" />
    <glyph glyph-name="ellipsis" unicode="&#x2026;" horiz-adv-x="1000" 
d="M350 -25h-150v150h150v-150zM625 -25h-150v150h150v-150zM900 -25h-150v150h150v-150z" />
    <glyph glyph-name="perthousand" unicode="&#x2030;" horiz-adv-x="1389" 
d="M421 575q0 21 -15 35.5t-35 14.5q-21 0 -35.5 -14.5t-14.5 -35.5t14.5 -35.5t35.5 -14.5q20 0 35 14.5t15 35.5zM371 725q31 0 58 -12t47.5 -32t32.5 -47.5t12 -58.5t-12 -58.5t-32.5 -47.5t-47.5 -32t-58 -12t-58.5 12t-47.5 32t-32 47.5t-12 58.5t12 58.5t32 47.5
t47.5 32t58.5 12zM334 -49l-100 76l548 723l100 -76zM1169 125q0 21 -14.5 35.5t-35.5 14.5q-20 0 -35 -14.5t-15 -35.5t15 -35.5t35 -14.5q21 0 35.5 14.5t14.5 35.5zM1119 275q31 0 58.5 -12t47.5 -32t32 -47.5t12 -58.5t-12 -58.5t-32 -47.5t-47.5 -32t-58.5 -12
t-58.5 12t-47.5 32t-32 47.5t-12 58.5t12 58.5t32 47.5t47.5 32t58.5 12zM811 125q0 21 -14.5 35.5t-35.5 14.5q-20 0 -35 -14.5t-15 -35.5t15 -35.5t35 -14.5q21 0 35.5 14.5t14.5 35.5zM761 275q31 0 58.5 -12t47.5 -32t32 -47.5t12 -58.5t-12 -58.5t-32 -47.5t-47.5 -32
t-58.5 -12t-58 12t-47.5 32t-32.5 47.5t-12 58.5t12 58.5t32.5 47.5t47.5 32t58 12z" />
    <glyph glyph-name="guilsinglleft" unicode="&#x2039;" horiz-adv-x="511" 
d="M328 590l123 -86l-108 -154l108 -154l-123 -86l-168 240z" />
    <glyph glyph-name="guilsinglright" unicode="&#x203a;" horiz-adv-x="511" 
d="M451 350l-167 -240l-123 86l107 154l-107 154l123 86z" />
    <glyph glyph-name="fraction" unicode="&#x2044;" horiz-adv-x="807" 
d="M229 -49l-99 76l548 723l99 -76z" />
    <glyph glyph-name="Euro" unicode="&#x20ac;" horiz-adv-x="1039" 
d="M850 235l119 -91l-15 -20q-51 -69 -129 -109t-170 -40q-54 0 -104 14.5t-92.5 41t-77 63t-58.5 81.5h-143l37 150h64q-1 6 -1 12.5v12.5v12.5t1 12.5h-83l37 150h88q24 45 58.5 81.5t77 63t92.5 41t104 14.5q92 0 170 -40.5t129 -108.5l15 -20l-119 -91l-15 20
q-31 42 -77.5 66t-102.5 24q-41 0 -76.5 -13.5t-64.5 -36.5h123l-38 -150h-168q-1 -6 -1 -12.5v-12.5v-13t1 -12h188l-38 -150h-67q29 -23 64.5 -36.5t76.5 -13.5q56 0 102.5 24t77.5 66z" />
    <glyph glyph-name="uni2116" unicode="&#x2116;" horiz-adv-x="1496" 
d="M190 82q18 -1 36.5 -2t44.5 7q34 11 59 42.5t43.5 75t30.5 96t19 105.5t10.5 104t4.5 91.5t1 67.5v32l137 26l174 -424q9 61 20.5 134.5t26.5 144t33.5 131t41.5 96.5l128 -75q-24 -50 -45 -133t-38.5 -185t-30.5 -215.5t-21 -222.5l-135 -20l-163 396
q-14 -84 -38 -160.5t-64.5 -135t-99.5 -93.5t-143 -35l-32 1v151zM1316 40h-307v150h307v-150zM1376 418q0 -43 -16 -80.5t-44 -65.5t-65.5 -44t-80.5 -16t-80.5 16t-65.5 44t-44 65.5t-16 80.5t16 80.5t44 65.5t65.5 44t80.5 16t80.5 -16t65.5 -44t44 -65.5t16 -80.5z
M1170 474q-23 0 -39.5 -16.5t-16.5 -39.5t16.5 -39.5t39.5 -16.5t39.5 16.5t16.5 39.5t-16.5 39.5t-39.5 16.5z" />
    <glyph glyph-name="trademark" unicode="&#x2122;" horiz-adv-x="676" 
d="M170 725h293l31 -45l31 45h81v-251h-90v78l-22 -32l-22 32v-78h-90v161h-55v-161h-90v161h-67v90z" />
    <glyph glyph-name="minus" unicode="&#x2212;" horiz-adv-x="850" 
d="M750 275h-550v150h550v-150z" />
    </font>
</defs>
</svg>
